VIC-WA-NT-Beginner-Bold.ufo
<glyph name="exclam" format="2">
  <advance width="276"/>
  <unicode hex="0021"/>
  <outline>
    <contour>
      <point x="114" y="0" type="curve" smooth="yes"/>
      <point x="147" y="0"/>
      <point x="177" y="30"/>
      <point x="177" y="65" type="curve" smooth="yes"/>
      <point x="177" y="98"/>
      <point x="147" y="126"/>
      <point x="114" y="126" type="curve" smooth="yes"/>
      <point x="79" y="126"/>
      <point x="52" y="98"/>
      <point x="52" y="65" type="curve" smooth="yes"/>
      <point x="52" y="30"/>
      <point x="79" y="0"/>
    </contour>
    <contour>
      <point x="136" y="175" type="curve" smooth="yes"/>
      <point x="159" y="173"/>
      <point x="188" y="191"/>
      <point x="193" y="220" type="curve" smooth="yes"/>
      <point x="262" y="605" type="line" smooth="yes"/>
      <point x="267" y="632"/>
      <point x="240" y="650"/>
      <point x="216" y="650" type="curve" smooth="yes"/>
      <point x="194" y="650"/>
      <point x="165" y="635"/>
      <point x="161" y="611" type="curve" smooth="yes"/>
      <point x="92" y="226" type="line" smooth="yes"/>
      <point x="87" y="197"/>
      <point x="111" y="177"/>
    </contour>
  </outline>
</glyph>
<glyph name="quotedbl" format="2">
  <advance width="392"/>
  <unicode hex="0022"/>
  <outline>
    <contour>
      <point x="167" y="456" type="curve" smooth="yes"/>
      <point x="190" y="456"/>
      <point x="215" y="471"/>
      <point x="220" y="498" type="curve" smooth="yes"/>
      <point x="237" y="594" type="line" smooth="yes"/>
      <point x="243" y="628"/>
      <point x="219" y="650"/>
      <point x="191" y="650" type="curve" smooth="yes"/>
      <point x="168" y="650"/>
      <point x="142" y="634"/>
      <point x="137" y="606" type="curve" smooth="yes"/>
      <point x="120" y="510" type="line" smooth="yes"/>
      <point x="114" y="477"/>
      <point x="139" y="456"/>
    </contour>
    <contour>
      <point x="326" y="456" type="curve" smooth="yes"/>
      <point x="348" y="456"/>
      <point x="375" y="470"/>
      <point x="379" y="496" type="curve" smooth="yes"/>
      <point x="396" y="595" type="line" smooth="yes"/>
      <point x="402" y="629"/>
      <point x="376" y="650"/>
      <point x="348" y="650" type="curve" smooth="yes"/>
      <point x="325" y="650"/>
      <point x="301" y="635"/>
      <point x="296" y="610" type="curve" smooth="yes"/>
      <point x="278" y="510" type="line" smooth="yes"/>
      <point x="271" y="472"/>
      <point x="302" y="456"/>
    </contour>
  </outline>
</glyph>
<glyph name="numbersign" format="2">
  <advance width="756"/>
  <unicode hex="0023"/>
  <outline>
    <contour>
      <point x="215" y="0" type="curve" smooth="yes"/>
      <point x="239" y="0"/>
      <point x="268" y="10"/>
      <point x="273" y="39" type="curve" smooth="yes"/>
      <point x="358" y="523" type="line" smooth="yes"/>
      <point x="363" y="552"/>
      <point x="339" y="568"/>
      <point x="312" y="568" type="curve" smooth="yes"/>
      <point x="287" y="568"/>
      <point x="266" y="557"/>
      <point x="261" y="530" type="curve" smooth="yes"/>
      <point x="175" y="47" type="line" smooth="yes"/>
      <point x="169" y="16"/>
      <point x="189" y="0"/>
    </contour>
    <contour>
      <point x="463" y="0" type="curve" smooth="yes"/>
      <point x="487" y="0"/>
      <point x="509" y="11"/>
      <point x="514" y="39" type="curve" smooth="yes"/>
      <point x="599" y="523" type="line" smooth="yes"/>
      <point x="605" y="555"/>
      <point x="581" y="568"/>
      <point x="558" y="568" type="curve" smooth="yes"/>
      <point x="534" y="568"/>
      <point x="506" y="558"/>
      <point x="501" y="531" type="curve" smooth="yes"/>
      <point x="416" y="47" type="line" smooth="yes"/>
      <point x="410" y="13"/>
      <point x="436" y="0"/>
    </contour>
    <contour>
      <point x="112" y="133" type="curve" smooth="yes"/>
      <point x="624" y="133" type="line" smooth="yes"/>
      <point x="653" y="133"/>
      <point x="673" y="153"/>
      <point x="673" y="177" type="curve" smooth="yes"/>
      <point x="673" y="200"/>
      <point x="654" y="218"/>
      <point x="624" y="218" type="curve" smooth="yes"/>
      <point x="112" y="218" type="line" smooth="yes"/>
      <point x="82" y="218"/>
      <point x="62" y="200"/>
      <point x="62" y="177" type="curve" smooth="yes"/>
      <point x="62" y="153"/>
      <point x="83" y="133"/>
    </contour>
    <contour>
      <point x="151" y="357" type="curve" smooth="yes"/>
      <point x="662" y="357" type="line" smooth="yes"/>
      <point x="692" y="357"/>
      <point x="713" y="375"/>
      <point x="713" y="399" type="curve" smooth="yes"/>
      <point x="713" y="422"/>
      <point x="692" y="442"/>
      <point x="662" y="442" type="curve" smooth="yes"/>
      <point x="151" y="442" type="line" smooth="yes"/>
      <point x="121" y="442"/>
      <point x="101" y="422"/>
      <point x="101" y="399" type="curve" smooth="yes"/>
      <point x="101" y="375"/>
      <point x="121" y="357"/>
    </contour>
  </outline>
</glyph>
<glyph name="dollar" format="2">
  <advance width="546"/>
  <unicode hex="0024"/>
  <outline>
    <contour>
      <point x="236" y="-3" type="curve" smooth="yes"/>
      <point x="335" y="-3"/>
      <point x="447" y="33"/>
      <point x="468" y="145" type="curve" smooth="yes"/>
      <point x="490" y="262"/>
      <point x="416" y="303"/>
      <point x="351" y="343" type="curve" smooth="yes"/>
      <point x="293" y="379"/>
      <point x="223" y="400"/>
      <point x="231" y="441" type="curve" smooth="yes"/>
      <point x="237" y="474"/>
      <point x="279" y="479"/>
      <point x="340" y="479" type="curve" smooth="yes"/>
      <point x="398" y="479"/>
      <point x="422" y="467"/>
      <point x="429" y="444" type="curve" smooth="yes"/>
      <point x="438" y="415"/>
      <point x="463" y="404"/>
      <point x="493" y="413" type="curve" smooth="yes"/>
      <point x="518" y="421"/>
      <point x="529" y="442"/>
      <point x="524" y="466" type="curve" smooth="yes"/>
      <point x="509" y="538"/>
      <point x="461" y="568"/>
      <point x="362" y="568" type="curve" smooth="yes"/>
      <point x="224" y="568"/>
      <point x="143" y="532"/>
      <point x="128" y="444" type="curve" smooth="yes"/>
      <point x="111" y="348"/>
      <point x="218" y="303"/>
      <point x="281" y="266" type="curve" smooth="yes"/>
      <point x="349" y="226"/>
      <point x="384" y="204"/>
      <point x="373" y="149" type="curve" smooth="yes"/>
      <point x="364" y="104"/>
      <point x="313" y="93"/>
      <point x="242" y="93" type="curve" smooth="yes"/>
      <point x="180" y="93"/>
      <point x="163" y="102"/>
      <point x="156" y="123" type="curve" smooth="yes"/>
      <point x="145" y="153"/>
      <point x="112" y="162"/>
      <point x="87" y="154" type="curve" smooth="yes"/>
      <point x="64" y="147"/>
      <point x="46" y="125"/>
      <point x="51" y="101" type="curve" smooth="yes"/>
      <point x="63" y="33"/>
      <point x="124" y="-3"/>
    </contour>
    <contour>
      <point x="405" y="594" type="line" smooth="yes"/>
      <point x="411" y="629"/>
      <point x="388" y="650"/>
      <point x="362" y="650" type="curve" smooth="yes"/>
      <point x="340" y="650"/>
      <point x="315" y="635"/>
      <point x="310" y="606" type="curve" smooth="yes"/>
      <point x="199" y="-28" type="line" smooth="yes"/>
      <point x="193" y="-61"/>
      <point x="216" y="-80"/>
      <point x="241" y="-80" type="curve" smooth="yes"/>
      <point x="263" y="-80"/>
      <point x="288" y="-65"/>
      <point x="293" y="-38" type="curve" smooth="yes"/>
    </contour>
  </outline>
</glyph>
<glyph name="percent" format="2">
  <advance width="675"/>
  <unicode hex="0025"/>
  <outline>
    <contour>
      <point x="195" y="398" type="curve" smooth="yes"/>
      <point x="262" y="398"/>
      <point x="334" y="491"/>
      <point x="334" y="577" type="curve" smooth="yes"/>
      <point x="334" y="625"/>
      <point x="300" y="654"/>
      <point x="244" y="654" type="curve" smooth="yes"/>
      <point x="162" y="654"/>
      <point x="120" y="595"/>
      <point x="120" y="478" type="curve" smooth="yes"/>
      <point x="120" y="429"/>
      <point x="149" y="398"/>
    </contour>
    <contour>
      <point x="205" y="476" type="curve" smooth="yes"/>
      <point x="199" y="476"/>
      <point x="196" y="484"/>
      <point x="196" y="496" type="curve" smooth="yes"/>
      <point x="196" y="552"/>
      <point x="211" y="580"/>
      <point x="236" y="580" type="curve" smooth="yes"/>
      <point x="248" y="580"/>
      <point x="253" y="570"/>
      <point x="253" y="555" type="curve" smooth="yes"/>
      <point x="253" y="517"/>
      <point x="228" y="476"/>
    </contour>
    <contour>
      <point x="520" y="588" type="line" smooth="yes"/>
      <point x="536" y="624"/>
      <point x="505" y="650"/>
      <point x="475" y="650" type="curve" smooth="yes"/>
      <point x="455" y="650"/>
      <point x="433" y="639"/>
      <point x="422" y="614" type="curve" smooth="yes"/>
      <point x="182" y="60" type="line" smooth="yes"/>
      <point x="167" y="25"/>
      <point x="196" y="0"/>
      <point x="228" y="0" type="curve" smooth="yes"/>
      <point x="247" y="0"/>
      <point x="269" y="10"/>
      <point x="279" y="32" type="curve" smooth="yes"/>
    </contour>
    <contour>
      <point x="464" y="-4" type="curve" smooth="yes"/>
      <point x="531" y="-4"/>
      <point x="603" y="89"/>
      <point x="603" y="175" type="curve" smooth="yes"/>
      <point x="603" y="223"/>
      <point x="569" y="252"/>
      <point x="513" y="252" type="curve" smooth="yes"/>
      <point x="431" y="252"/>
      <point x="389" y="193"/>
      <point x="389" y="76" type="curve" smooth="yes"/>
      <point x="389" y="27"/>
      <point x="418" y="-4"/>
    </contour>
    <contour>
      <point x="474" y="74" type="curve" smooth="yes"/>
      <point x="468" y="74"/>
      <point x="465" y="82"/>
      <point x="465" y="94" type="curve" smooth="yes"/>
      <point x="465" y="150"/>
      <point x="480" y="178"/>
      <point x="505" y="178" type="curve" smooth="yes"/>
      <point x="517" y="178"/>
      <point x="522" y="168"/>
      <point x="522" y="153" type="curve" smooth="yes"/>
      <point x="522" y="115"/>
      <point x="497" y="74"/>
    </contour>
  </outline>
</glyph>
<glyph name="quotesingle" format="2">
  <advance width="234"/>
  <unicode hex="0027"/>
  <outline>
    <contour>
      <point x="168" y="456" type="curve" smooth="yes"/>
      <point x="190" y="456"/>
      <point x="217" y="470"/>
      <point x="221" y="496" type="curve" smooth="yes"/>
      <point x="238" y="595" type="line" smooth="yes"/>
      <point x="243" y="629"/>
      <point x="218" y="650"/>
      <point x="190" y="650" type="curve" smooth="yes"/>
      <point x="167" y="650"/>
      <point x="144" y="635"/>
      <point x="138" y="610" type="curve" smooth="yes"/>
      <point x="120" y="510" type="line" smooth="yes"/>
      <point x="114" y="472"/>
      <point x="144" y="456"/>
    </contour>
  </outline>
</glyph>
<glyph name="asterisk" format="2">
  <advance width="430"/>
  <unicode hex="002A"/>
  <outline>
    <contour>
      <point x="360" y="554" type="line" smooth="yes"/>
      <point x="386" y="570"/>
      <point x="396" y="594"/>
      <point x="381" y="617" type="curve" smooth="yes"/>
      <point x="370" y="633"/>
      <point x="342" y="639"/>
      <point x="317" y="625" type="curve" smooth="yes"/>
      <point x="184" y="543" type="line"/>
      <point x="162" y="527"/>
      <point x="150" y="504"/>
      <point x="163" y="483" type="curve" smooth="yes"/>
      <point x="173" y="464"/>
      <point x="204" y="458"/>
      <point x="231" y="474" type="curve" smooth="yes"/>
    </contour>
    <contour>
      <point x="296" y="477" type="line"/>
      <point x="321" y="460"/>
      <point x="350" y="464"/>
      <point x="364" y="481" type="curve" smooth="yes"/>
      <point x="377" y="499"/>
      <point x="375" y="521"/>
      <point x="353" y="538" type="curve" smooth="yes"/>
      <point x="248" y="621" type="line" smooth="yes"/>
      <point x="226" y="638"/>
      <point x="197" y="634"/>
      <point x="184" y="617" type="curve" smooth="yes"/>
      <point x="169" y="599"/>
      <point x="171" y="576"/>
      <point x="195" y="558" type="curve" smooth="yes"/>
    </contour>
    <contour>
      <point x="329" y="616" type="line" smooth="yes"/>
      <point x="334" y="648"/>
      <point x="314" y="668"/>
      <point x="290" y="668" type="curve" smooth="yes"/>
      <point x="269" y="668"/>
      <point x="246" y="651"/>
      <point x="241" y="624" type="curve" smooth="yes"/>
      <point x="216" y="482" type="line" smooth="yes"/>
      <point x="211" y="453"/>
      <point x="227" y="436"/>
      <point x="248" y="431" type="curve" smooth="yes"/>
      <point x="270" y="426"/>
      <point x="298" y="443"/>
      <point x="304" y="474" type="curve" smooth="yes"/>
    </contour>
  </outline>
</glyph>
<glyph name="zero" format="2">
  <advance width="476"/>
  <unicode hex="0030"/>
  <outline>
    <contour>
      <point x="198" y="-4" type="curve" smooth="yes"/>
      <point x="332" y="-3"/>
      <point x="453" y="172"/>
      <point x="453" y="366" type="curve" smooth="yes"/>
      <point x="453" y="491"/>
      <point x="393" y="569"/>
      <point x="297" y="569" type="curve" smooth="yes"/>
      <point x="101" y="569"/>
      <point x="46" y="340"/>
      <point x="46" y="222" type="curve" smooth="yes"/>
      <point x="46" y="82"/>
      <point x="104" y="-4"/>
    </contour>
    <contour>
      <point x="198" y="86" type="curve" smooth="yes"/>
      <point x="166" y="86"/>
      <point x="146" y="138"/>
      <point x="146" y="218" type="curve" smooth="yes"/>
      <point x="146" y="331"/>
      <point x="193" y="479"/>
      <point x="299" y="479" type="curve" smooth="yes"/>
      <point x="333" y="479"/>
      <point x="354" y="436"/>
      <point x="354" y="369" type="curve" smooth="yes"/>
      <point x="354" y="221"/>
      <point x="280" y="86"/>
    </contour>
  </outline>
</glyph>
<glyph name="one" format="2">
  <advance width="232"/>
  <unicode hex="0031"/>
  <outline>
    <contour>
      <point x="86" y="0" type="curve" smooth="yes"/>
      <point x="108" y="0"/>
      <point x="133" y="12"/>
      <point x="138" y="39" type="curve" smooth="yes"/>
      <point x="223" y="518" type="line" smooth="yes"/>
      <point x="228" y="548"/>
      <point x="204" y="568"/>
      <point x="177" y="568" type="curve" smooth="yes"/>
      <point x="154" y="568"/>
      <point x="128" y="554"/>
      <point x="123" y="526" type="curve" smooth="yes"/>
      <point x="39" y="51" type="line" smooth="yes"/>
      <point x="33" y="18"/>
      <point x="59" y="0"/>
    </contour>
  </outline>
</glyph>
<glyph name="two" format="2">
  <advance width="434"/>
  <unicode hex="0032"/>
  <outline>
    <contour>
      <point x="54" y="0" type="curve" smooth="yes"/>
      <point x="310" y="0" type="line" smooth="yes"/>
      <point x="340" y="0"/>
      <point x="360" y="20"/>
      <point x="360" y="47" type="curve" smooth="yes"/>
      <point x="360" y="71"/>
      <point x="342" y="90"/>
      <point x="310" y="90" type="curve" smooth="yes"/>
      <point x="138" y="90" type="line"/>
      <point x="148" y="68" type="line"/>
      <point x="242" y="173"/>
      <point x="319" y="254"/>
      <point x="327" y="264" type="curve" smooth="yes"/>
      <point x="398" y="352"/>
      <point x="433" y="413"/>
      <point x="433" y="460" type="curve" smooth="yes"/>
      <point x="433" y="527"/>
      <point x="378" y="568"/>
      <point x="288" y="568" type="curve" smooth="yes"/>
      <point x="223" y="568"/>
      <point x="150" y="540"/>
      <point x="107" y="504" type="curve" smooth="yes"/>
      <point x="73" y="476"/>
      <point x="79" y="454"/>
      <point x="96" y="434" type="curve" smooth="yes"/>
      <point x="108" y="421"/>
      <point x="138" y="413"/>
      <point x="176" y="443" type="curve" smooth="yes"/>
      <point x="207" y="468"/>
      <point x="251" y="482"/>
      <point x="286" y="482" type="curve" smooth="yes"/>
      <point x="316" y="482"/>
      <point x="335" y="472"/>
      <point x="335" y="455" type="curve" smooth="yes"/>
      <point x="335" y="430"/>
      <point x="305" y="385"/>
      <point x="269" y="343" type="curve" smooth="yes"/>
      <point x="243" y="313"/>
      <point x="146" y="205"/>
      <point x="21" y="65" type="curve" smooth="yes"/>
      <point x="-10" y="29"/>
      <point x="15" y="0"/>
    </contour>
  </outline>
</glyph>
<glyph name="six" format="2">
  <advance width="427"/>
  <unicode hex="0036"/>
  <outline>
    <contour>
      <point x="158" y="-1" type="curve" smooth="yes"/>
      <point x="265" y="-1"/>
      <point x="388" y="143"/>
      <point x="388" y="247" type="curve" smooth="yes"/>
      <point x="388" y="325"/>
      <point x="349" y="354"/>
      <point x="301" y="354" type="curve" smooth="yes"/>
      <point x="223" y="354"/>
      <point x="120" y="277"/>
      <point x="120" y="206" type="curve"/>
      <point x="125" y="138" type="line"/>
      <point x="125" y="192"/>
      <point x="215" y="272"/>
      <point x="264" y="272" type="curve" smooth="yes"/>
      <point x="282" y="272"/>
      <point x="294" y="261"/>
      <point x="294" y="234" type="curve" smooth="yes"/>
      <point x="294" y="174"/>
      <point x="208" y="89"/>
      <point x="159" y="89" type="curve" smooth="yes"/>
      <point x="139" y="89"/>
      <point x="125" y="104"/>
      <point x="125" y="138" type="curve" smooth="yes"/>
      <point x="124" y="258"/>
      <point x="116" y="322"/>
      <point x="362" y="494" type="curve" smooth="yes"/>
      <point x="379" y="506"/>
      <point x="387" y="521"/>
      <point x="387" y="537" type="curve" smooth="yes"/>
      <point x="386" y="559"/>
      <point x="366" y="576"/>
      <point x="341" y="576" type="curve" smooth="yes"/>
      <point x="331" y="576"/>
      <point x="320" y="573"/>
      <point x="309" y="568" type="curve"/>
      <point x="155" y="478"/>
      <point x="31" y="348"/>
      <point x="31" y="133" type="curve" smooth="yes"/>
      <point x="31" y="50"/>
      <point x="79" y="-1"/>
    </contour>
  </outline>
</glyph>
<glyph name="seven" format="2">
  <advance width="411"/>
  <unicode hex="0037"/>
  <outline>
    <contour>
      <point x="238" y="0" type="curve" smooth="yes"/>
      <point x="261" y="0"/>
      <point x="284" y="15"/>
      <point x="291" y="42" type="curve" smooth="yes"/>
      <point x="423" y="524" type="line" smooth="yes"/>
      <point x="430" y="551"/>
      <point x="419" y="568"/>
      <point x="377" y="568" type="curve" smooth="yes"/>
      <point x="144" y="568" type="line" smooth="yes"/>
      <point x="114" y="568"/>
      <point x="94" y="546"/>
      <point x="94" y="522" type="curve" smooth="yes"/>
      <point x="94" y="498"/>
      <point x="114" y="478"/>
      <point x="144" y="478" type="curve" smooth="yes"/>
      <point x="348" y="478" type="line"/>
      <point x="326" y="517" type="line"/>
      <point x="194" y="50" type="line" smooth="yes"/>
      <point x="185" y="20"/>
      <point x="211" y="0"/>
    </contour>
  </outline>
</glyph>
<glyph name="eight" format="2">
  <advance width="416"/>
  <unicode hex="0038"/>
  <outline>
    <contour>
      <point x="196" y="84" type="curve" smooth="yes"/>
      <point x="163" y="84"/>
      <point x="135" y="108"/>
      <point x="135" y="148" type="curve" smooth="yes"/>
      <point x="135" y="177"/>
      <point x="155" y="219"/>
      <point x="248" y="287" type="curve" smooth="yes"/>
      <point x="326" y="344"/>
      <point x="396" y="392"/>
      <point x="396" y="465" type="curve" smooth="yes"/>
      <point x="396" y="532"/>
      <point x="310" y="568"/>
      <point x="238" y="568" type="curve" smooth="yes"/>
      <point x="161" y="568"/>
      <point x="78" y="526"/>
      <point x="78" y="428" type="curve" smooth="yes"/>
      <point x="78" y="355"/>
      <point x="142" y="311"/>
      <point x="164" y="289" type="curve" smooth="yes"/>
      <point x="183" y="270" type="line" smooth="yes"/>
      <point x="219" y="234"/>
      <point x="266" y="190"/>
      <point x="266" y="147" type="curve" smooth="yes"/>
      <point x="266" y="113"/>
      <point x="237" y="84"/>
    </contour>
    <contour>
      <point x="197" y="-1" type="curve" smooth="yes"/>
      <point x="312" y="-1"/>
      <point x="361" y="86"/>
      <point x="361" y="156" type="curve" smooth="yes"/>
      <point x="361" y="218"/>
      <point x="307" y="275"/>
      <point x="256" y="322" type="curve" smooth="yes"/>
      <point x="231" y="345" type="line" smooth="yes"/>
      <point x="203" y="371"/>
      <point x="170" y="397"/>
      <point x="170" y="433" type="curve" smooth="yes"/>
      <point x="170" y="470"/>
      <point x="207" y="483"/>
      <point x="242" y="483" type="curve" smooth="yes"/>
      <point x="274" y="483"/>
      <point x="303" y="476"/>
      <point x="303" y="456" type="curve" smooth="yes"/>
      <point x="303" y="436"/>
      <point x="242" y="391"/>
      <point x="185" y="352" type="curve" smooth="yes"/>
      <point x="81" y="281"/>
      <point x="40" y="204"/>
      <point x="40" y="148" type="curve" smooth="yes"/>
      <point x="40" y="87"/>
      <point x="86" y="-1"/>
    </contour>
  </outline>
</glyph>
<glyph name="nine" format="2">
  <advance width="444"/>
  <unicode hex="0039"/>
  <outline>
    <contour>
      <point x="132" y="209" type="curve" smooth="yes"/>
      <point x="214" y="209"/>
      <point x="292" y="279"/>
      <point x="381" y="481" type="curve"/>
      <point x="328" y="481" type="line"/>
      <point x="289" y="403"/>
      <point x="204" y="299"/>
      <point x="172" y="299" type="curve" smooth="yes"/>
      <point x="163" y="299"/>
      <point x="159" y="306"/>
      <point x="159" y="320" type="curve" smooth="yes"/>
      <point x="159" y="412"/>
      <point x="210" y="478"/>
      <point x="279" y="478" type="curve" smooth="yes"/>
      <point x="328" y="478" type="line"/>
      <point x="250" y="43" type="line" smooth="yes"/>
      <point x="244" y="11"/>
      <point x="273" y="-4"/>
      <point x="295" y="-4" type="curve" smooth="yes"/>
      <point x="318" y="-4"/>
      <point x="345" y="10"/>
      <point x="350" y="36" type="curve" smooth="yes"/>
      <point x="437" y="529" type="line" smooth="yes"/>
      <point x="442" y="555"/>
      <point x="427" y="568"/>
      <point x="394" y="568" type="curve" smooth="yes"/>
      <point x="279" y="568" type="line" smooth="yes"/>
      <point x="152" y="568"/>
      <point x="57" y="450"/>
      <point x="57" y="291" type="curve" smooth="yes"/>
      <point x="57" y="237"/>
      <point x="82" y="209"/>
    </contour>
  </outline>
</glyph>
<glyph name="semicolon" format="2">
  <advance width="219"/>
  <unicode hex="003B"/>
  <outline>
    <contour>
      <point x="63" y="-79" type="curve" smooth="yes"/>
      <point x="89" y="-79"/>
      <point x="110" y="-68"/>
      <point x="118" y="-37" type="curve" smooth="yes"/>
      <point x="144" y="67" type="line" smooth="yes"/>
      <point x="156" y="113"/>
      <point x="123" y="129"/>
      <point x="96" y="129" type="curve" smooth="yes"/>
      <point x="70" y="129"/>
      <point x="50" y="119.0"/>
      <point x="42" y="87" type="curve" smooth="yes"/>
      <point x="16" y="-17" type="line" smooth="yes"/>
      <point x="5" y="-62"/>
      <point x="37" y="-79"/>
    </contour>
    <contour>
      <point x="138" y="233" type="curve" smooth="yes"/>
      <point x="171" y="233"/>
      <point x="201" y="263"/>
      <point x="201" y="298" type="curve" smooth="yes"/>
      <point x="201" y="331"/>
      <point x="171" y="359"/>
      <point x="138" y="359" type="curve" smooth="yes"/>
      <point x="103" y="359"/>
      <point x="76" y="331"/>
      <point x="76" y="298" type="curve" smooth="yes"/>
      <point x="76" y="263"/>
      <point x="103" y="233"/>
    </contour>
  </outline>
</glyph>
<glyph name="at" format="2">
  <advance width="712"/>
  <unicode hex="0040"/>
  <outline>
    <contour>
      <point x="299" y="49" type="curve" smooth="yes"/>
      <point x="365" y="49"/>
      <point x="396" y="124"/>
      <point x="424" y="229" type="curve" smooth="yes"/>
      <point x="453" y="337"/>
      <point x="457" y="408"/>
      <point x="388" y="408" type="curve" smooth="yes"/>
      <point x="311" y="408"/>
      <point x="239" y="341"/>
      <point x="212" y="233" type="curve" smooth="yes"/>
      <point x="184" y="119"/>
      <point x="219" y="49"/>
    </contour>
    <contour>
      <point x="320" y="139" type="curve" smooth="yes"/>
      <point x="299" y="139"/>
      <point x="293" y="167"/>
      <point x="305" y="213" type="curve" smooth="yes"/>
      <point x="321" y="278"/>
      <point x="352" y="318"/>
      <point x="386" y="318" type="curve" smooth="yes"/>
      <point x="406" y="318"/>
      <point x="412" y="292"/>
      <point x="401" y="249" type="curve" smooth="yes"/>
      <point x="384" y="181"/>
      <point x="353" y="139"/>
    </contour>
    <contour>
      <point x="294" y="-120" type="curve" smooth="yes"/>
      <point x="324" y="-120"/>
      <point x="382" y="-111"/>
      <point x="430" y="-98" type="curve" smooth="yes"/>
      <point x="467" y="-88"/>
      <point x="484" y="-64"/>
      <point x="475" y="-33" type="curve" smooth="yes"/>
      <point x="466" y="-4"/>
      <point x="436" y="6"/>
      <point x="395" y="-8" type="curve" smooth="yes"/>
      <point x="365" y="-18"/>
      <point x="321" y="-25"/>
      <point x="292" y="-25" type="curve" smooth="yes"/>
      <point x="171" y="-25"/>
      <point x="107" y="78"/>
      <point x="141" y="215" type="curve" smooth="yes"/>
      <point x="184" y="384"/>
      <point x="292" y="489"/>
      <point x="424" y="489" type="curve" smooth="yes"/>
      <point x="541" y="489"/>
      <point x="605" y="395"/>
      <point x="576" y="268" type="curve" smooth="yes"/>
      <point x="558" y="192"/>
      <point x="516" y="136"/>
      <point x="485" y="136" type="curve" smooth="yes"/>
      <point x="470" y="136"/>
      <point x="475" y="164"/>
      <point x="479" y="179" type="curve" smooth="yes"/>
      <point x="523" y="354" type="line" smooth="yes"/>
      <point x="532" y="390"/>
      <point x="517" y="408"/>
      <point x="485" y="408" type="curve" smooth="yes"/>
      <point x="455" y="408"/>
      <point x="439" y="397"/>
      <point x="432" y="369" type="curve" smooth="yes"/>
      <point x="389" y="200" type="line" smooth="yes"/>
      <point x="358" y="80"/>
      <point x="401" y="49"/>
      <point x="453" y="49" type="curve"/>
      <point x="552" y="49"/>
      <point x="647" y="137"/>
      <point x="676" y="254" type="curve" smooth="yes"/>
      <point x="724" y="443"/>
      <point x="617" y="584"/>
      <point x="427" y="584" type="curve" smooth="yes"/>
      <point x="243" y="584"/>
      <point x="96" y="453"/>
      <point x="43" y="240" type="curve" smooth="yes"/>
      <point x="-8" y="34"/>
      <point x="99" y="-120"/>
    </contour>
  </outline>
</glyph>
<glyph name="A" format="2">
  <advance width="495"/>
  <unicode hex="0041"/>
  <outline>
    <contour>
      <point x="35" y="0" type="curve" smooth="yes"/>
      <point x="62" y="0"/>
      <point x="77" y="8"/>
      <point x="90" y="33" type="curve" smooth="yes"/>
      <point x="301" y="449" type="line"/>
      <point x="330" y="523" type="line"/>
      <point x="327" y="448" type="line"/>
      <point x="361" y="40" type="line" smooth="yes"/>
      <point x="363" y="16"/>
      <point x="379" y="0"/>
      <point x="410" y="0" type="curve" smooth="yes"/>
      <point x="438" y="0"/>
      <point x="458" y="15"/>
      <point x="455" y="46" type="curve"/>
      <point x="407" y="603" type="line" smooth="yes"/>
      <point x="404" y="634"/>
      <point x="382" y="650"/>
      <point x="351" y="650" type="curve" smooth="yes"/>
      <point x="318" y="650"/>
      <point x="298" y="635"/>
      <point x="288" y="616" type="curve" smooth="yes"/>
      <point x="-2" y="60" type="line" smooth="yes"/>
      <point x="-21" y="24"/>
      <point x="5" y="0"/>
    </contour>
    <contour>
      <point x="139" y="244" type="line"/>
      <point x="388" y="244" type="line"/>
      <point x="380" y="334" type="line"/>
      <point x="182" y="334" type="line"/>
    </contour>
  </outline>
</glyph>
<glyph name="B" format="2">
  <advance width="547"/>
  <unicode hex="0042"/>
  <outline>
    <contour>
      <point x="81" y="0" type="curve" smooth="yes"/>
      <point x="374" y="0"/>
      <point x="476" y="26"/>
      <point x="493" y="151" type="curve" smooth="yes"/>
      <point x="512" y="292"/>
      <point x="361" y="358"/>
      <point x="142" y="358" type="curve"/>
      <point x="128" y="277" type="line"/>
      <point x="337" y="277"/>
      <point x="404" y="241"/>
      <point x="394" y="168" type="curve" smooth="yes"/>
      <point x="387" y="115"/>
      <point x="325" y="94"/>
      <point x="147" y="90" type="curve"/>
      <point x="230" y="559" type="line"/>
      <point x="410" y="554"/>
      <point x="448" y="523"/>
      <point x="441" y="467" type="curve" smooth="yes"/>
      <point x="434" y="413"/>
      <point x="423" y="358"/>
      <point x="147" y="358" type="curve"/>
      <point x="134" y="295" type="line"/>
      <point x="407" y="295"/>
      <point x="525" y="344"/>
      <point x="541" y="462" type="curve" smooth="yes"/>
      <point x="559" y="597"/>
      <point x="443" y="650"/>
      <point x="186" y="650" type="curve" smooth="yes"/>
      <point x="163" y="650"/>
      <point x="143" y="642"/>
      <point x="137" y="609" type="curve" smooth="yes"/>
      <point x="39" y="53" type="line" smooth="yes"/>
      <point x="34" y="23"/>
      <point x="55" y="0"/>
    </contour>
  </outline>
</glyph>
<glyph name="E" format="2">
  <advance width="547"/>
  <unicode hex="0045"/>
  <outline>
    <contour>
      <point x="76" y="0" type="curve"/>
      <point x="423" y="0" type="line" smooth="yes"/>
      <point x="453" y="0"/>
      <point x="473" y="16"/>
      <point x="473" y="42" type="curve" smooth="yes"/>
      <point x="473" y="66"/>
      <point x="457" y="89"/>
      <point x="425" y="89" type="curve" smooth="yes"/>
      <point x="149" y="89" type="line"/>
      <point x="232" y="561" type="line"/>
      <point x="522" y="561" type="line" smooth="yes"/>
      <point x="552" y="561"/>
      <point x="573" y="580"/>
      <point x="573" y="606" type="curve" smooth="yes"/>
      <point x="573" y="631"/>
      <point x="555" y="650"/>
      <point x="524" y="650" type="curve" smooth="yes"/>
      <point x="191" y="650" type="line" smooth="yes"/>
      <point x="160" y="650"/>
      <point x="143" y="639"/>
      <point x="138" y="611" type="curve" smooth="yes"/>
      <point x="39" y="50" type="line" smooth="yes"/>
      <point x="34" y="22"/>
      <point x="46" y="0"/>
    </contour>
    <contour>
      <point x="132" y="283" type="line"/>
      <point x="441" y="283" type="line" smooth="yes"/>
      <point x="473" y="283"/>
      <point x="495" y="302"/>
      <point x="495" y="326" type="curve" smooth="yes"/>
      <point x="495" y="352"/>
      <point x="476" y="368"/>
      <point x="446" y="368" type="curve" smooth="yes"/>
      <point x="148" y="368" type="line"/>
    </contour>
  </outline>
</glyph>
<glyph name="F" format="2">
  <advance width="537"/>
  <unicode hex="0046"/>
  <outline>
    <contour>
      <point x="84" y="0" type="curve" smooth="yes"/>
      <point x="115" y="0"/>
      <point x="137" y="21"/>
      <point x="142" y="51" type="curve" smooth="yes"/>
      <point x="232" y="561" type="line"/>
      <point x="511" y="561" type="line" smooth="yes"/>
      <point x="544" y="561"/>
      <point x="563" y="583"/>
      <point x="563" y="604" type="curve" smooth="yes"/>
      <point x="563" y="632"/>
      <point x="545" y="650"/>
      <point x="514" y="650" type="curve" smooth="yes"/>
      <point x="189" y="650" type="line" smooth="yes"/>
      <point x="158" y="650"/>
      <point x="143" y="638"/>
      <point x="138" y="610" type="curve" smooth="yes"/>
      <point x="40" y="54" type="line" smooth="yes"/>
      <point x="35" y="27"/>
      <point x="45" y="0"/>
    </contour>
    <contour>
      <point x="127" y="279" type="line"/>
      <point x="436" y="279" type="line" smooth="yes"/>
      <point x="468" y="279"/>
      <point x="485" y="298"/>
      <point x="485" y="322" type="curve" smooth="yes"/>
      <point x="485" y="348"/>
      <point x="467" y="364"/>
      <point x="437" y="364" type="curve" smooth="yes"/>
      <point x="142" y="364" type="line"/>
    </contour>
  </outline>
</glyph>
<glyph name="G" format="2">
  <advance width="566"/>
  <unicode hex="0047"/>
  <outline>
    <contour>
      <point x="234" y="0" type="curve" smooth="yes"/>
      <point x="318" y="0"/>
      <point x="370" y="51"/>
      <point x="425" y="141" type="curve"/>
      <point x="407" y="145" type="line"/>
      <point x="390" y="49" type="line" smooth="yes"/>
      <point x="384" y="18"/>
      <point x="405" y="0"/>
      <point x="439" y="0" type="curve" smooth="yes"/>
      <point x="474" y="0"/>
      <point x="483" y="18"/>
      <point x="487" y="42" type="curve" smooth="yes"/>
      <point x="527" y="267" type="line" smooth="yes"/>
      <point x="532" y="298"/>
      <point x="516" y="317"/>
      <point x="485" y="317" type="curve" smooth="yes"/>
      <point x="465" y="317"/>
      <point x="444" y="312"/>
      <point x="418" y="266" type="curve" smooth="yes"/>
      <point x="368" y="178"/>
      <point x="303" y="90"/>
      <point x="235" y="90" type="curve" smooth="yes"/>
      <point x="176" y="90"/>
      <point x="141" y="172"/>
      <point x="164" y="304" type="curve" smooth="yes"/>
      <point x="193" y="474"/>
      <point x="266" y="560"/>
      <point x="382" y="560" type="curve" smooth="yes"/>
      <point x="428" y="560"/>
      <point x="460" y="550"/>
      <point x="492" y="520" type="curve" smooth="yes"/>
      <point x="516" y="498"/>
      <point x="546" y="489"/>
      <point x="568" y="511" type="curve" smooth="yes"/>
      <point x="591" y="534"/>
      <point x="578" y="563"/>
      <point x="553" y="586" type="curve" smooth="yes"/>
      <point x="500" y="634"/>
      <point x="445" y="650"/>
      <point x="383" y="650" type="curve" smooth="yes"/>
      <point x="211" y="650"/>
      <point x="104" y="534"/>
      <point x="64" y="305" type="curve" smooth="yes"/>
      <point x="31" y="116"/>
      <point x="104" y="0"/>
    </contour>
  </outline>
</glyph>
<glyph name="H" format="2">
  <advance width="566"/>
  <unicode hex="0048"/>
  <outline>
    <contour>
      <point x="86" y="0" type="curve" smooth="yes"/>
      <point x="120" y="0"/>
      <point x="136" y="20"/>
      <point x="139" y="40" type="curve" smooth="yes"/>
      <point x="236" y="597" type="line" smooth="yes"/>
      <point x="242" y="632"/>
      <point x="224" y="650"/>
      <point x="195" y="650" type="curve" smooth="yes"/>
      <point x="168" y="650"/>
      <point x="142" y="637"/>
      <point x="137" y="609" type="curve" smooth="yes"/>
      <point x="39" y="49" type="line" smooth="yes"/>
      <point x="34" y="21"/>
      <point x="54" y="0"/>
    </contour>
    <contour>
      <point x="132" y="282" type="line"/>
      <point x="465" y="282" type="line"/>
      <point x="479" y="372" type="line"/>
      <point x="146" y="372" type="line"/>
    </contour>
    <contour>
      <point x="419" y="0" type="curve" smooth="yes"/>
      <point x="448" y="0"/>
      <point x="469" y="17"/>
      <point x="473" y="37" type="curve" smooth="yes"/>
      <point x="571" y="599" type="line" smooth="yes"/>
      <point x="577" y="631"/>
      <point x="556" y="650"/>
      <point x="525" y="650" type="curve" smooth="yes"/>
      <point x="497" y="650"/>
      <point x="476" y="635"/>
      <point x="472" y="613" type="curve" smooth="yes"/>
      <point x="374" y="49" type="line" smooth="yes"/>
      <point x="369" y="20"/>
      <point x="386" y="0"/>
    </contour>
  </outline>
</glyph>
<glyph name="I" format="2">
  <advance width="394"/>
  <unicode hex="0049"/>
  <outline>
    <contour>
      <point x="118" y="39" type="line"/>
      <point x="219" y="39" type="line"/>
      <point x="318" y="612" type="line"/>
      <point x="217" y="612" type="line"/>
    </contour>
    <contour>
      <point x="74" y="0" type="curve" smooth="yes"/>
      <point x="252" y="0" type="line" smooth="yes"/>
      <point x="285" y="0"/>
      <point x="296" y="20"/>
      <point x="300" y="44" type="curve" smooth="yes"/>
      <point x="304" y="68"/>
      <point x="291" y="90"/>
      <point x="266" y="90" type="curve" smooth="yes"/>
      <point x="88" y="90" type="line" smooth="yes"/>
      <point x="56" y="90"/>
      <point x="41" y="68"/>
      <point x="37" y="44" type="curve" smooth="yes"/>
      <point x="33" y="20"/>
      <point x="49" y="0"/>
    </contour>
    <contour>
      <point x="174" y="560" type="curve" smooth="yes"/>
      <point x="352" y="560" type="line" smooth="yes"/>
      <point x="384" y="560"/>
      <point x="398" y="583"/>
      <point x="402" y="607" type="curve" smooth="yes"/>
      <point x="406" y="631"/>
      <point x="389" y="650"/>
      <point x="366" y="650" type="curve" smooth="yes"/>
      <point x="188" y="650" type="line" smooth="yes"/>
      <point x="157" y="650"/>
      <point x="143" y="631"/>
      <point x="139" y="607" type="curve" smooth="yes"/>
      <point x="135" y="583"/>
      <point x="151" y="560"/>
    </contour>
  </outline>
</glyph>
<glyph name="L" format="2">
  <advance width="521"/>
  <unicode hex="004C"/>
  <outline>
    <contour>
      <point x="82" y="0" type="curve" smooth="yes"/>
      <point x="428" y="0" type="line" smooth="yes"/>
      <point x="458" y="0"/>
      <point x="478" y="22"/>
      <point x="478" y="46" type="curve" smooth="yes"/>
      <point x="478" y="70"/>
      <point x="458" y="90"/>
      <point x="428" y="90" type="curve" smooth="yes"/>
      <point x="148" y="90" type="line"/>
      <point x="238" y="597" type="line" smooth="yes"/>
      <point x="245" y="639"/>
      <point x="221" y="650"/>
      <point x="196" y="650" type="curve" smooth="yes"/>
      <point x="167" y="650"/>
      <point x="143" y="637"/>
      <point x="138" y="609" type="curve" smooth="yes"/>
      <point x="39" y="49" type="line" smooth="yes"/>
      <point x="34" y="21"/>
      <point x="52" y="0"/>
    </contour>
  </outline>
</glyph>
<glyph name="P" format="2">
  <advance width="546"/>
  <unicode hex="0050"/>
  <outline>
    <contour>
      <point x="85" y="0" type="curve" smooth="yes"/>
      <point x="119" y="0"/>
      <point x="132" y="17"/>
      <point x="136" y="39" type="curve" smooth="yes"/>
      <point x="228" y="562" type="line"/>
      <point x="433" y="562"/>
      <point x="459" y="533"/>
      <point x="451" y="472" type="curve" smooth="yes"/>
      <point x="440" y="382"/>
      <point x="301" y="364"/>
      <point x="146" y="363" type="curve"/>
      <point x="134" y="273" type="line"/>
      <point x="330" y="274"/>
      <point x="523" y="289"/>
      <point x="548" y="467" type="curve" smooth="yes"/>
      <point x="567" y="602"/>
      <point x="435" y="650"/>
      <point x="190" y="650" type="curve" smooth="yes"/>
      <point x="160" y="650"/>
      <point x="142" y="637"/>
      <point x="137" y="609" type="curve" smooth="yes"/>
      <point x="38" y="48" type="line" smooth="yes"/>
      <point x="33" y="21"/>
      <point x="52" y="0"/>
    </contour>
  </outline>
</glyph>
<glyph name="Q" format="2">
  <advance width="574"/>
  <unicode hex="0051"/>
  <outline>
    <contour>
      <point x="265" y="0" type="curve" smooth="yes"/>
      <point x="407" y="0"/>
      <point x="520" y="148"/>
      <point x="562" y="387" type="curve" smooth="yes"/>
      <point x="591" y="551"/>
      <point x="538" y="650"/>
      <point x="371" y="650" type="curve" smooth="yes"/>
      <point x="208" y="650"/>
      <point x="106" y="542"/>
      <point x="68" y="329" type="curve" smooth="yes"/>
      <point x="33" y="126"/>
      <point x="108" y="0"/>
    </contour>
    <contour>
      <point x="264" y="90" type="curve" smooth="yes"/>
      <point x="179" y="90"/>
      <point x="142" y="177"/>
      <point x="167" y="319" type="curve" smooth="yes"/>
      <point x="196" y="479"/>
      <point x="263" y="560"/>
      <point x="366" y="560" type="curve" smooth="yes"/>
      <point x="474" y="560"/>
      <point x="482" y="495"/>
      <point x="462" y="381" type="curve" smooth="yes"/>
      <point x="431" y="201"/>
      <point x="355" y="90"/>
    </contour>
    <contour>
      <point x="442" y="-71" type="curve" smooth="yes"/>
      <point x="465" y="-56"/>
      <point x="470" y="-28"/>
      <point x="454" y="-4" type="curve" smooth="yes"/>
      <point x="347" y="154" type="line" smooth="yes"/>
      <point x="329" y="181"/>
      <point x="298" y="189"/>
      <point x="276" y="173" type="curve" smooth="yes"/>
      <point x="254" y="158"/>
      <point x="250" y="128"/>
      <point x="266" y="104" type="curve" smooth="yes"/>
      <point x="371" y="-50" type="line" smooth="yes"/>
      <point x="389" y="-77"/>
      <point x="420" y="-85"/>
    </contour>
  </outline>
</glyph>
<glyph name="R" format="2">
  <advance width="547"/>
  <unicode hex="0052"/>
  <outline>
    <contour>
      <point x="79" y="0" type="curve" smooth="yes"/>
      <point x="110" y="0"/>
      <point x="136" y="23"/>
      <point x="141" y="53" type="curve" smooth="yes"/>
      <point x="231" y="560" type="line"/>
      <point x="409" y="561"/>
      <point x="463" y="531"/>
      <point x="452" y="470" type="curve" smooth="yes"/>
      <point x="437" y="382"/>
      <point x="304" y="363"/>
      <point x="142" y="363" type="curve"/>
      <point x="128" y="273" type="line"/>
      <point x="328" y="273"/>
      <point x="517" y="289"/>
      <point x="549" y="467" type="curve" smooth="yes"/>
      <point x="573" y="602"/>
      <point x="436" y="650"/>
      <point x="193" y="650" type="curve" smooth="yes"/>
      <point x="162" y="650"/>
      <point x="143" y="637"/>
      <point x="138" y="609" type="curve" smooth="yes"/>
      <point x="40" y="54" type="line" smooth="yes"/>
      <point x="35" y="24"/>
      <point x="47" y="0"/>
    </contour>
    <contour>
      <point x="427" y="0" type="curve" smooth="yes"/>
      <point x="459" y="0"/>
      <point x="493" y="41"/>
      <point x="451" y="89" type="curve" smooth="yes"/>
      <point x="250" y="318" type="line"/>
      <point x="121" y="318" type="line"/>
      <point x="375" y="23" type="line" smooth="yes"/>
      <point x="393" y="3"/>
      <point x="414" y="0"/>
    </contour>
  </outline>
</glyph>
<glyph name="S" format="2">
  <advance width="484"/>
  <unicode hex="0053"/>
  <outline>
    <contour>
      <point x="192" y="0" type="curve" smooth="yes"/>
      <point x="331" y="0"/>
      <point x="435" y="91"/>
      <point x="435" y="212" type="curve" smooth="yes"/>
      <point x="435" y="269"/>
      <point x="413" y="312"/>
      <point x="311" y="385" type="curve" smooth="yes"/>
      <point x="260" y="421"/>
      <point x="196" y="456"/>
      <point x="196" y="487" type="curve" smooth="yes"/>
      <point x="196" y="535"/>
      <point x="244" y="560"/>
      <point x="339" y="560" type="curve" smooth="yes"/>
      <point x="383" y="560"/>
      <point x="406" y="549"/>
      <point x="410" y="526" type="curve" smooth="yes"/>
      <point x="415" y="496"/>
      <point x="445" y="489"/>
      <point x="467" y="495" type="curve" smooth="yes"/>
      <point x="492" y="503"/>
      <point x="501" y="524"/>
      <point x="497" y="548" type="curve" smooth="yes"/>
      <point x="483" y="621"/>
      <point x="434" y="650"/>
      <point x="354" y="650" type="curve" smooth="yes"/>
      <point x="185" y="650"/>
      <point x="99" y="595"/>
      <point x="99" y="487" type="curve" smooth="yes"/>
      <point x="99" y="392"/>
      <point x="190" y="352"/>
      <point x="244" y="313" type="curve" smooth="yes"/>
      <point x="318" y="259"/>
      <point x="340" y="239"/>
      <point x="340" y="201" type="curve" smooth="yes"/>
      <point x="340" y="139"/>
      <point x="284" y="90"/>
      <point x="209" y="90" type="curve" smooth="yes"/>
      <point x="158" y="90"/>
      <point x="125" y="104"/>
      <point x="121" y="124" type="curve" smooth="yes"/>
      <point x="115" y="153"/>
      <point x="86" y="158"/>
      <point x="65" y="154" type="curve" smooth="yes"/>
      <point x="39" y="149"/>
      <point x="29" y="126"/>
      <point x="34" y="102" type="curve" smooth="yes"/>
      <point x="45" y="39"/>
      <point x="105" y="0"/>
    </contour>
  </outline>
</glyph>
<glyph name="Y" format="2">
  <advance width="449"/>
  <unicode hex="0059"/>
  <outline>
    <contour>
      <point x="198" y="-2" type="curve" smooth="yes"/>
      <point x="232" y="-2"/>
      <point x="246" y="19"/>
      <point x="250" y="40" type="curve" smooth="yes"/>
      <point x="298" y="316" type="line"/>
      <point x="493" y="575" type="line" smooth="yes"/>
      <point x="501" y="586"/>
      <point x="505" y="596"/>
      <point x="505" y="608" type="curve" smooth="yes"/>
      <point x="505" y="634"/>
      <point x="474" y="650"/>
      <point x="456" y="650" type="curve" smooth="yes"/>
      <point x="440" y="650"/>
      <point x="424" y="642"/>
      <point x="415" y="629" type="curve" smooth="yes"/>
      <point x="246" y="396" type="line"/>
      <point x="270" y="392" type="line"/>
      <point x="184" y="619" type="line" smooth="yes"/>
      <point x="175" y="640"/>
      <point x="163" y="650"/>
      <point x="142" y="650" type="curve" smooth="yes"/>
      <point x="113" y="650"/>
      <point x="89" y="634"/>
      <point x="89" y="613" type="curve" smooth="yes"/>
      <point x="89" y="603"/>
      <point x="91" y="597"/>
      <point x="95" y="586" type="curve" smooth="yes"/>
      <point x="197" y="322" type="line"/>
      <point x="150" y="49" type="line" smooth="yes"/>
      <point x="145" y="21"/>
      <point x="166" y="-2"/>
    </contour>
  </outline>
</glyph>
<glyph name="Z" format="2">
  <advance width="501"/>
  <unicode hex="005A"/>
  <outline>
    <contour>
      <point x="66" y="0" type="curve" smooth="yes"/>
      <point x="376" y="0" type="line" smooth="yes"/>
      <point x="408" y="0"/>
      <point x="426" y="19"/>
      <point x="426" y="43" type="curve" smooth="yes"/>
      <point x="426" y="69"/>
      <point x="406" y="90"/>
      <point x="376" y="90" type="curve" smooth="yes"/>
      <point x="126" y="90" type="line"/>
      <point x="133" y="66" type="line"/>
      <point x="505" y="577" type="line" smooth="yes"/>
      <point x="514" y="589"/>
      <point x="518" y="600"/>
      <point x="518" y="610" type="curve" smooth="yes"/>
      <point x="518.0" y="635"/>
      <point x="497.0" y="653.0"/>
      <point x="464" y="653" type="curve" smooth="yes"/>
      <point x="160" y="653" type="line" smooth="yes"/>
      <point x="130" y="653"/>
      <point x="110" y="633"/>
      <point x="110" y="607" type="curve" smooth="yes"/>
      <point x="110" y="583"/>
      <point x="128" y="563"/>
      <point x="160" y="563" type="curve" smooth="yes"/>
      <point x="401" y="563" type="line"/>
      <point x="394" y="587" type="line"/>
      <point x="17" y="70" type="line" smooth="yes"/>
      <point x="11" y="62"/>
      <point x="8" y="53"/>
      <point x="8" y="44" type="curve" smooth="yes"/>
      <point x="8" y="25"/>
      <point x="21" y="0"/>
    </contour>
  </outline>
</glyph>
<glyph name="underscore" format="2">
  <advance width="464"/>
  <unicode hex="005F"/>
  <outline>
    <contour>
      <point x="84" y="-98" type="curve" smooth="yes"/>
      <point x="310" y="-98" type="line" smooth="yes"/>
      <point x="346" y="-98"/>
      <point x="368" y="-80"/>
      <point x="368" y="-52" type="curve" smooth="yes"/>
      <point x="368" y="-25"/>
      <point x="349" y="-8"/>
      <point x="319" y="-8" type="curve" smooth="yes"/>
      <point x="93" y="-8" type="line" smooth="yes"/>
      <point x="57" y="-8"/>
      <point x="35" y="-26"/>
      <point x="35" y="-54" type="curve" smooth="yes"/>
      <point x="35" y="-81"/>
      <point x="54" y="-98"/>
    </contour>
  </outline>
</glyph>
<glyph name="a" format="2">
  <advance width="387"/>
  <unicode hex="0061"/>
  <outline>
    <contour>
      <point x="117" y="-4" type="curve" smooth="yes"/>
      <point x="162" y="-4"/>
      <point x="206" y="39"/>
      <point x="250" y="123" type="curve"/>
      <point x="256" y="253" type="line"/>
      <point x="212" y="142"/>
      <point x="165" y="83"/>
      <point x="144" y="83" type="curve" smooth="yes"/>
      <point x="128" y="83"/>
      <point x="121" y="109"/>
      <point x="127" y="147" type="curve" smooth="yes"/>
      <point x="139" y="217"/>
      <point x="192" y="263"/>
      <point x="267" y="263" type="curve" smooth="yes"/>
      <point x="276" y="263" type="line"/>
      <point x="288" y="350" type="line"/>
      <point x="264" y="350" type="line" smooth="yes"/>
      <point x="139" y="350"/>
      <point x="48" y="272"/>
      <point x="26" y="147" type="curve" smooth="yes"/>
      <point x="9" y="54"/>
      <point x="44" y="-4"/>
    </contour>
    <contour>
      <point x="263" y="0" type="curve" smooth="yes"/>
      <point x="299" y="0"/>
      <point x="311" y="22"/>
      <point x="314" y="37" type="curve" smooth="yes"/>
      <point x="359" y="295" type="line" smooth="yes"/>
      <point x="365" y="328"/>
      <point x="353" y="350"/>
      <point x="321" y="350" type="curve" smooth="yes"/>
      <point x="273" y="350" type="line"/>
      <point x="219" y="44" type="line" smooth="yes"/>
      <point x="215" y="21"/>
      <point x="231" y="0"/>
    </contour>
  </outline>
</glyph>
<glyph name="c" format="2">
  <advance width="342"/>
  <unicode hex="0063"/>
  <outline>
    <contour>
      <point x="122" y="-4" type="curve" smooth="yes"/>
      <point x="185" y="-4"/>
      <point x="250" y="44"/>
      <point x="292" y="121" type="curve" smooth="yes"/>
      <point x="298" y="132"/>
      <point x="297" y="159"/>
      <point x="271" y="172" type="curve" smooth="yes"/>
      <point x="245" y="185"/>
      <point x="219" y="179"/>
      <point x="211" y="164" type="curve" smooth="yes"/>
      <point x="185" y="114"/>
      <point x="155" y="83"/>
      <point x="132" y="83" type="curve" smooth="yes"/>
      <point x="119" y="83"/>
      <point x="112" y="96"/>
      <point x="114" y="118" type="curve" smooth="yes"/>
      <point x="125" y="216"/>
      <point x="162" y="276"/>
      <point x="213" y="276" type="curve" smooth="yes"/>
      <point x="228" y="276"/>
      <point x="244" y="273"/>
      <point x="263" y="265" type="curve" smooth="yes"/>
      <point x="286" y="256"/>
      <point x="308" y="265"/>
      <point x="319" y="288" type="curve" smooth="yes"/>
      <point x="335" y="322"/>
      <point x="309" y="340"/>
      <point x="296" y="345" type="curve" smooth="yes"/>
      <point x="274" y="354"/>
      <point x="248" y="358"/>
      <point x="213" y="358" type="curve" smooth="yes"/>
      <point x="111" y="358"/>
      <point x="38" y="267"/>
      <point x="22" y="120" type="curve" smooth="yes"/>
      <point x="13" y="43"/>
      <point x="51" y="-4"/>
    </contour>
  </outline>
</glyph>
<glyph name="d" format="2">
  <advance width="401"/>
  <unicode hex="0064"/>
  <outline>
    <contour>
      <point x="117" y="-4" type="curve" smooth="yes"/>
      <point x="162" y="-4"/>
      <point x="206" y="39"/>
      <point x="250" y="123" type="curve"/>
      <point x="256" y="253" type="line"/>
      <point x="212" y="142"/>
      <point x="165" y="83"/>
      <point x="144" y="83" type="curve" smooth="yes"/>
      <point x="128" y="83"/>
      <point x="121" y="109"/>
      <point x="127" y="147" type="curve" smooth="yes"/>
      <point x="139" y="217"/>
      <point x="192" y="263"/>
      <point x="267" y="263" type="curve" smooth="yes"/>
      <point x="276" y="263" type="line"/>
      <point x="288" y="350" type="line"/>
      <point x="264" y="350" type="line" smooth="yes"/>
      <point x="139" y="350"/>
      <point x="48" y="272"/>
      <point x="26" y="147" type="curve" smooth="yes"/>
      <point x="9" y="54"/>
      <point x="44" y="-4"/>
    </contour>
    <contour>
      <point x="266" y="0" type="curve" smooth="yes"/>
      <point x="288" y="0"/>
      <point x="314" y="15"/>
      <point x="319" y="44" type="curve" smooth="yes"/>
      <point x="417" y="599" type="line" smooth="yes"/>
      <point x="423" y="631"/>
      <point x="396" y="650"/>
      <point x="368" y="650" type="curve" smooth="yes"/>
      <point x="346" y="650"/>
      <point x="324" y="640"/>
      <point x="319" y="612" type="curve" smooth="yes"/>
      <point x="220" y="50" type="line" smooth="yes"/>
      <point x="214" y="15"/>
      <point x="243" y="0"/>
    </contour>
  </outline>
</glyph>
<glyph name="j" format="2">
  <advance width="212"/>
  <unicode hex="006A"/>
  <outline>
    <contour>
      <point x="-98" y="-300" type="curve" smooth="yes"/>
      <point x="12" y="-300"/>
      <point x="83" y="-215"/>
      <point x="113" y="-47" type="curve" smooth="yes"/>
      <point x="175" y="302" type="line" smooth="yes"/>
      <point x="180" y="332"/>
      <point x="164" y="350"/>
      <point x="132" y="350" type="curve" smooth="yes"/>
      <point x="90" y="350"/>
      <point x="77" y="320"/>
      <point x="75" y="308" type="curve" smooth="yes"/>
      <point x="13" y="-40" type="line" smooth="yes"/>
      <point x="-11" y="-173"/>
      <point x="-66" y="-203"/>
      <point x="-105" y="-203" type="curve" smooth="yes"/>
      <point x="-124" y="-203"/>
      <point x="-138" y="-196"/>
      <point x="-146" y="-191" type="curve" smooth="yes"/>
      <point x="-167" y="-178"/>
      <point x="-193" y="-183"/>
      <point x="-206" y="-204" type="curve" smooth="yes"/>
      <point x="-222" y="-228"/>
      <point x="-218" y="-256"/>
      <point x="-197" y="-271" type="curve" smooth="yes"/>
      <point x="-182" y="-282"/>
      <point x="-146" y="-300"/>
    </contour>
    <contour>
      <point x="150" y="413" type="curve" smooth="yes"/>
      <point x="179" y="413"/>
      <point x="204" y="437"/>
      <point x="204" y="466" type="curve" smooth="yes"/>
      <point x="204" y="497"/>
      <point x="178" y="519"/>
      <point x="150" y="519" type="curve" smooth="yes"/>
      <point x="121" y="519"/>
      <point x="98" y="495"/>
      <point x="98" y="466" type="curve" smooth="yes"/>
      <point x="98" y="437"/>
      <point x="122" y="413"/>
    </contour>
  </outline>
</glyph>
<glyph name="l" format="2">
  <advance width="210"/>
  <unicode hex="006C"/>
  <outline>
    <contour>
      <point x="75" y="0" type="curve" smooth="yes"/>
      <point x="97" y="0"/>
      <point x="123" y="15"/>
      <point x="128" y="44" type="curve" smooth="yes"/>
      <point x="226" y="599" type="line" smooth="yes"/>
      <point x="232" y="631"/>
      <point x="205" y="650"/>
      <point x="177" y="650" type="curve" smooth="yes"/>
      <point x="155" y="650"/>
      <point x="133" y="640"/>
      <point x="128" y="612" type="curve" smooth="yes"/>
      <point x="29" y="50" type="line" smooth="yes"/>
      <point x="23" y="15"/>
      <point x="52" y="0"/>
    </contour>
  </outline>
</glyph>
<glyph name="r" format="2">
  <advance width="386"/>
  <unicode hex="0072"/>
  <outline>
    <contour>
      <point x="64" y="0" type="curve" smooth="yes"/>
      <point x="87" y="0"/>
      <point x="113" y="14"/>
      <point x="118" y="41" type="curve" smooth="yes"/>
      <point x="163" y="297" type="line" smooth="yes"/>
      <point x="169" y="329"/>
      <point x="143" y="350"/>
      <point x="117" y="350" type="curve" smooth="yes"/>
      <point x="95" y="350"/>
      <point x="69" y="336"/>
      <point x="64" y="309" type="curve" smooth="yes"/>
      <point x="18" y="48" type="line" smooth="yes"/>
      <point x="13" y="18"/>
      <point x="38" y="0"/>
    </contour>
    <contour>
      <point x="101" y="78" type="line"/>
      <point x="164" y="213"/>
      <point x="207" y="264"/>
      <point x="221" y="264" type="curve" smooth="yes"/>
      <point x="238" y="264"/>
      <point x="257" y="244"/>
      <point x="285" y="244" type="curve" smooth="yes"/>
      <point x="301" y="244"/>
      <point x="331" y="259"/>
      <point x="349" y="269" type="curve" smooth="yes"/>
      <point x="365" y="278"/>
      <point x="391" y="288"/>
      <point x="391" y="318" type="curve" smooth="yes"/>
      <point x="391" y="361"/>
      <point x="344" y="364"/>
      <point x="324" y="350" type="curve" smooth="yes"/>
      <point x="317" y="345"/>
      <point x="301" y="333"/>
      <point x="288" y="333" type="curve" smooth="yes"/>
      <point x="269" y="333"/>
      <point x="272" y="358"/>
      <point x="239" y="358" type="curve" smooth="yes"/>
      <point x="202" y="358"/>
      <point x="148" y="275"/>
      <point x="117" y="203" type="curve"/>
    </contour>
  </outline>
</glyph>
<glyph name="t" format="2">
  <advance width="324"/>
  <unicode hex="0074"/>
  <outline>
    <contour>
      <point x="116" y="0" type="curve" smooth="yes"/>
      <point x="141" y="0"/>
      <point x="163" y="9"/>
      <point x="168" y="35" type="curve" smooth="yes"/>
      <point x="254" y="523" type="line" smooth="yes"/>
      <point x="260" y="557"/>
      <point x="231" y="568"/>
      <point x="204" y="568" type="curve" smooth="yes"/>
      <point x="182" y="568"/>
      <point x="159" y="555"/>
      <point x="155" y="532" type="curve" smooth="yes"/>
      <point x="69" y="44" type="line" smooth="yes"/>
      <point x="63" y="12"/>
      <point x="90" y="0"/>
    </contour>
    <contour>
      <point x="65" y="265" type="curve" smooth="yes"/>
      <point x="275" y="265" type="line" smooth="yes"/>
      <point x="307" y="265"/>
      <point x="325" y="283"/>
      <point x="325" y="307" type="curve" smooth="yes"/>
      <point x="325" y="332"/>
      <point x="307" y="350"/>
      <point x="275" y="350" type="curve" smooth="yes"/>
      <point x="65" y="350" type="line" smooth="yes"/>
      <point x="33" y="350"/>
      <point x="15" y="332"/>
      <point x="15" y="307" type="curve" smooth="yes"/>
      <point x="15" y="283"/>
      <point x="33" y="265"/>
    </contour>
  </outline>
</glyph>
<glyph name="y" format="2">
  <advance width="398"/>
  <unicode hex="0079"/>
  <outline>
    <contour>
      <point x="124" y="-4" type="curve" smooth="yes"/>
      <point x="161" y="-4"/>
      <point x="200" y="25"/>
      <point x="241" y="82" type="curve"/>
      <point x="262" y="214" type="line"/>
      <point x="213" y="126"/>
      <point x="178" y="82"/>
      <point x="158" y="82" type="curve" smooth="yes"/>
      <point x="137" y="82"/>
      <point x="130" y="102"/>
      <point x="137" y="142" type="curve" smooth="yes"/>
      <point x="165" y="301" type="line" smooth="yes"/>
      <point x="169" y="325"/>
      <point x="153" y="350"/>
      <point x="121" y="350" type="curve" smooth="yes"/>
      <point x="85" y="350"/>
      <point x="69" y="331"/>
      <point x="66" y="316" type="curve" smooth="yes"/>
      <point x="38" y="157" type="line" smooth="yes"/>
      <point x="19" y="50"/>
      <point x="48" y="-4"/>
    </contour>
    <contour>
      <point x="98" y="-300" type="curve" smooth="yes"/>
      <point x="208" y="-300"/>
      <point x="279" y="-215"/>
      <point x="309" y="-47" type="curve" smooth="yes"/>
      <point x="371" y="302" type="line" smooth="yes"/>
      <point x="376" y="332"/>
      <point x="360" y="350"/>
      <point x="328" y="350" type="curve" smooth="yes"/>
      <point x="286" y="350"/>
      <point x="273" y="320"/>
      <point x="271" y="308" type="curve" smooth="yes"/>
      <point x="209" y="-40" type="line" smooth="yes"/>
      <point x="185" y="-173"/>
      <point x="130" y="-203"/>
      <point x="91" y="-203" type="curve" smooth="yes"/>
      <point x="72" y="-203"/>
      <point x="58" y="-196"/>
      <point x="50" y="-191" type="curve" smooth="yes"/>
      <point x="29" y="-178"/>
      <point x="3" y="-183"/>
      <point x="-10" y="-204" type="curve" smooth="yes"/>
      <point x="-26" y="-228"/>
      <point x="-22" y="-256"/>
      <point x="-1" y="-271" type="curve" smooth="yes"/>
      <point x="14" y="-282"/>
      <point x="50" y="-300"/>
    </contour>
  </outline>
</glyph>
<glyph name="braceleft" format="2">
  <advance width="422"/>
  <unicode hex="007B"/>
  <outline>
    <contour>
      <point x="187" y="-285" type="curve" smooth="yes"/>
      <point x="210" y="-311"/>
      <point x="241" y="-308"/>
      <point x="255" y="-289" type="curve" smooth="yes"/>
      <point x="272" y="-268"/>
      <point x="260" y="-251"/>
      <point x="245" y="-235" type="curve" smooth="yes"/>
      <point x="222" y="-210"/>
      <point x="206" y="-187"/>
      <point x="204" y="-139" type="curve" smooth="yes"/>
      <point x="203" y="-83"/>
      <point x="249" y="12"/>
      <point x="254" y="66" type="curve" smooth="yes"/>
      <point x="259" y="108"/>
      <point x="255" y="144"/>
      <point x="234" y="193" type="curve"/>
      <point x="269" y="230"/>
      <point x="281" y="262"/>
      <point x="289" y="302" type="curve" smooth="yes"/>
      <point x="298" y="357"/>
      <point x="284" y="459"/>
      <point x="302" y="511" type="curve" smooth="yes"/>
      <point x="318" y="552"/>
      <point x="352" y="566"/>
      <point x="381" y="576" type="curve" smooth="yes"/>
      <point x="404" y="584"/>
      <point x="415" y="605"/>
      <point x="406" y="628" type="curve" smooth="yes"/>
      <point x="395" y="656"/>
      <point x="363" y="652"/>
      <point x="340" y="642" type="curve" smooth="yes"/>
      <point x="311" y="629"/>
      <point x="232" y="599"/>
      <point x="211" y="540" type="curve" smooth="yes"/>
      <point x="189" y="475"/>
      <point x="200" y="368"/>
      <point x="191" y="316" type="curve" smooth="yes"/>
      <point x="187" y="291"/>
      <point x="175" y="273"/>
      <point x="156" y="254" type="curve" smooth="yes"/>
      <point x="140" y="239"/>
      <point x="131" y="230"/>
      <point x="128" y="209" type="curve" smooth="yes"/>
      <point x="124" y="179"/>
      <point x="133" y="170"/>
      <point x="142" y="153" type="curve" smooth="yes"/>
      <point x="155" y="126"/>
      <point x="159" y="103"/>
      <point x="156" y="79" type="curve" smooth="yes"/>
      <point x="149" y="26"/>
      <point x="104" y="-75"/>
      <point x="107" y="-143" type="curve" smooth="yes"/>
      <point x="110" y="-203"/>
      <point x="160" y="-256"/>
    </contour>
  </outline>
</glyph>
<glyph name="exclamdown" format="2">
  <advance width="276"/>
  <unicode hex="00A1"/>
  <outline>
    <contour>
      <point x="105" y="0" type="curve" smooth="yes"/>
      <point x="127" y="0"/>
      <point x="156" y="15"/>
      <point x="160" y="39" type="curve" smooth="yes"/>
      <point x="229" y="424" type="line" smooth="yes"/>
      <point x="234" y="453"/>
      <point x="210" y="473"/>
      <point x="185" y="475" type="curve" smooth="yes"/>
      <point x="162" y="477"/>
      <point x="133" y="459"/>
      <point x="128" y="430" type="curve" smooth="yes"/>
      <point x="59" y="45" type="line" smooth="yes"/>
      <point x="54" y="18"/>
      <point x="81" y="0"/>
    </contour>
    <contour>
      <point x="207" y="524" type="curve" smooth="yes"/>
      <point x="242" y="524"/>
      <point x="269" y="552"/>
      <point x="269" y="585" type="curve" smooth="yes"/>
      <point x="269" y="620"/>
      <point x="242" y="650"/>
      <point x="207" y="650" type="curve" smooth="yes"/>
      <point x="174" y="650"/>
      <point x="144" y="620"/>
      <point x="144" y="585" type="curve" smooth="yes"/>
      <point x="144" y="552"/>
      <point x="174" y="524"/>
    </contour>
  </outline>
</glyph>
<glyph name="degree" format="2">
  <advance width="350"/>
  <unicode hex="00B0"/>
  <outline>
    <contour>
      <point x="215" y="372" type="curve" smooth="yes"/>
      <point x="292" y="372"/>
      <point x="331" y="445"/>
      <point x="340" y="514" type="curve" smooth="yes"/>
      <point x="347" y="585"/>
      <point x="318" y="654"/>
      <point x="245" y="654" type="curve" smooth="yes"/>
      <point x="184" y="654"/>
      <point x="131" y="607"/>
      <point x="121" y="514" type="curve" smooth="yes"/>
      <point x="114" y="443"/>
      <point x="143" y="372"/>
    </contour>
    <contour>
      <point x="225" y="459" type="curve" smooth="yes"/>
      <point x="201" y="459"/>
      <point x="194" y="485"/>
      <point x="197" y="513" type="curve" smooth="yes"/>
      <point x="200" y="552"/>
      <point x="216" y="569"/>
      <point x="237" y="569" type="curve" smooth="yes"/>
      <point x="262" y="569"/>
      <point x="266" y="536"/>
      <point x="263" y="515" type="curve" smooth="yes"/>
      <point x="260" y="478"/>
      <point x="243" y="459"/>
    </contour>
  </outline>
</glyph>
<glyph name="plusminus" format="2">
  <advance width="426"/>
  <unicode hex="00B1"/>
  <outline>
    <contour>
      <point x="208" y="212" type="curve" smooth="yes"/>
      <point x="226.0" y="212.0"/>
      <point x="246.0" y="220.0"/>
      <point x="253" y="249" type="curve" smooth="yes"/>
      <point x="307" y="471" type="line" smooth="yes"/>
      <point x="315.0" y="506"/>
      <point x="291" y="526.0"/>
      <point x="270" y="526" type="curve" smooth="yes"/>
      <point x="253.0" y="526.0"/>
      <point x="231.0" y="521"/>
      <point x="224" y="492" type="curve" smooth="yes"/>
      <point x="170" y="269" type="line"/>
      <point x="162.0" y="231.0"/>
      <point x="187.0" y="212.0"/>
    </contour>
    <contour>
      <point x="123" y="328" type="curve" smooth="yes"/>
      <point x="350" y="328" type="line" smooth="yes"/>
      <point x="384.0" y="328.0"/>
      <point x="396.0" y="352.0"/>
      <point x="396" y="371" type="curve" smooth="yes"/>
      <point x="396.0" y="391.0"/>
      <point x="384.0" y="414.0"/>
      <point x="350" y="414" type="curve" smooth="yes"/>
      <point x="123" y="414" type="line" smooth="yes"/>
      <point x="89.0" y="414.0"/>
      <point x="77.0" y="391.0"/>
      <point x="77" y="371" type="curve" smooth="yes"/>
      <point x="77.0" y="351.0"/>
      <point x="89.0" y="328.0"/>
    </contour>
    <contour>
      <point x="79" y="106" type="curve" smooth="yes"/>
      <point x="306" y="106" type="line" smooth="yes"/>
      <point x="340.0" y="106.0"/>
      <point x="352.0" y="130"/>
      <point x="352" y="149" type="curve" smooth="yes"/>
      <point x="352.0" y="169.0"/>
      <point x="340.0" y="192.0"/>
      <point x="306" y="192" type="curve" smooth="yes"/>
      <point x="79" y="192" type="line" smooth="yes"/>
      <point x="45.0" y="192.0"/>
      <point x="33.0" y="169.0"/>
      <point x="33" y="149" type="curve" smooth="yes"/>
      <point x="33.0" y="129"/>
      <point x="45.0" y="106.0"/>
    </contour>
  </outline>
</glyph>
<glyph name="periodcentered" format="2">
  <advance width="219"/>
  <unicode hex="00B7"/>
  <outline>
    <contour>
      <point x="121" y="171" type="curve" smooth="yes"/>
      <point x="154" y="171"/>
      <point x="184" y="201"/>
      <point x="184" y="236" type="curve" smooth="yes"/>
      <point x="184" y="269"/>
      <point x="154" y="297"/>
      <point x="121" y="297" type="curve" smooth="yes"/>
      <point x="86" y="297"/>
      <point x="59" y="269"/>
      <point x="59" y="236" type="curve" smooth="yes"/>
      <point x="59" y="201"/>
      <point x="86" y="171"/>
    </contour>
  </outline>
</glyph>
<glyph name="divide" format="2">
  <advance width="426"/>
  <unicode hex="00F7"/>
  <outline>
    <contour>
      <point x="199" y="48" type="curve" smooth="yes"/>
      <point x="228.0" y="48.0"/>
      <point x="255.0" y="75"/>
      <point x="255" y="106" type="curve" smooth="yes"/>
      <point x="255.0" y="135.0"/>
      <point x="228.0" y="160.0"/>
      <point x="199" y="160" type="curve" smooth="yes"/>
      <point x="168.0" y="160.0"/>
      <point x="144.0" y="135.0"/>
      <point x="144" y="106" type="curve" smooth="yes"/>
      <point x="144.0" y="75"/>
      <point x="168.0" y="48.0"/>
    </contour>
    <contour>
      <point x="110" y="184" type="curve" smooth="yes"/>
      <point x="337" y="184" type="line" smooth="yes"/>
      <point x="371.0" y="184.0"/>
      <point x="383.0" y="208.0"/>
      <point x="383" y="227" type="curve" smooth="yes"/>
      <point x="383.0" y="247.0"/>
      <point x="371.0" y="270.0"/>
      <point x="337" y="270" type="curve" smooth="yes"/>
      <point x="110" y="270" type="line" smooth="yes"/>
      <point x="76.0" y="270.0"/>
      <point x="64.0" y="247.0"/>
      <point x="64" y="227" type="curve" smooth="yes"/>
      <point x="64.0" y="207.0"/>
      <point x="76.0" y="184.0"/>
    </contour>
    <contour>
      <point x="238" y="294" type="curve" smooth="yes"/>
      <point x="267.0" y="294.0"/>
      <point x="294.0" y="321.0"/>
      <point x="294" y="352" type="curve" smooth="yes"/>
      <point x="294.0" y="381"/>
      <point x="267.0" y="406.0"/>
      <point x="238" y="406" type="curve" smooth="yes"/>
      <point x="207.0" y="406.0"/>
      <point x="183.0" y="381"/>
      <point x="183" y="352" type="curve" smooth="yes"/>
      <point x="183.0" y="321.0"/>
      <point x="207.0" y="294.0"/>
    </contour>
  </outline>
</glyph>
<glyph name="bullet" format="2">
  <advance width="419"/>
  <unicode hex="2022"/>
  <outline>
    <contour>
      <point x="237" y="254" type="curve" smooth="yes"/>
      <point x="291" y="254"/>
      <point x="340" y="301"/>
      <point x="340" y="355" type="curve" smooth="yes"/>
      <point x="340" y="409"/>
      <point x="292" y="454"/>
      <point x="238" y="454" type="curve" smooth="yes"/>
      <point x="183" y="454"/>
      <point x="140" y="408"/>
      <point x="140" y="355" type="curve" smooth="yes"/>
      <point x="140" y="304"/>
      <point x="181" y="254"/>
    </contour>
  </outline>
</glyph>
<glyph name="minus" format="2">
  <advance width="426"/>
  <unicode hex="2212"/>
  <outline>
    <contour>
      <point x="110" y="184" type="curve" smooth="yes"/>
      <point x="337" y="184" type="line" smooth="yes"/>
      <point x="371.0" y="184.0"/>
      <point x="383.0" y="208.0"/>
      <point x="383" y="227" type="curve" smooth="yes"/>
      <point x="383.0" y="247.0"/>
      <point x="371.0" y="270.0"/>
      <point x="337" y="270" type="curve" smooth="yes"/>
      <point x="110" y="270" type="line" smooth="yes"/>
      <point x="76.0" y="270.0"/>
      <point x="64.0" y="247.0"/>
      <point x="64" y="227" type="curve" smooth="yes"/>
      <point x="64.0" y="207.0"/>
      <point x="76.0" y="184.0"/>
    </contour>
  </outline>
</glyph>
